<?xml version="1.0" encoding="utf-8"?>
<!-- Generator: Adobe Illustrator 26.4.1, SVG Export Plug-In . SVG Version: 6.00 Build 0)  -->
<svg version="1.1" id="Layer_1" xmlns="http://www.w3.org/2000/svg" xmlns:xlink="http://www.w3.org/1999/xlink" x="0px" y="0px"
	 viewBox="0 0 1440 1440" style="enable-background:new 0 0 1440 1440;" xml:space="preserve">
<style type="text/css">
	.st0{fill:#00A79D;}
</style>
<g>
	<g>
		<path d="M136.26,655.06c-0.5-13.47-1-29.76-1-46.05h-0.5c-3.49,14.3-8.15,30.26-12.47,43.39l-13.63,43.73H88.87l-11.97-43.4
			c-3.66-13.14-7.48-29.1-10.14-43.73h-0.33c-0.67,15.13-1.16,32.42-2,46.39l-2,42.56H38.99l7.15-112.06h33.75l10.97,37.41
			c3.49,12.97,6.98,26.93,9.48,40.07h0.5c3.16-12.97,6.98-27.77,10.64-40.24l11.97-37.24h33.09l6.15,112.06h-24.77L136.26,655.06z"
			/>
		<path d="M284.73,640.76c0,36.74-22.28,59.02-55.03,59.02c-33.25,0-52.71-25.11-52.71-57.03c0-33.59,21.45-58.69,54.53-58.69
			C265.94,584.07,284.73,609.84,284.73,640.76z M203.76,642.26c0,21.95,10.31,37.41,27.27,37.41c17.13,0,26.93-16.29,26.93-38.08
			c0-20.12-9.64-37.41-27.1-37.41C213.73,604.19,203.76,620.48,203.76,642.26z"/>
		<path d="M318.31,607.18h-30.09V585.9h86.13v21.28h-30.59v90.78h-25.44V607.18z"/>
		<path d="M485.57,640.76c0,36.74-22.28,59.02-55.03,59.02c-33.25,0-52.71-25.11-52.71-57.03c0-33.59,21.45-58.69,54.53-58.69
			C466.79,584.07,485.57,609.84,485.57,640.76z M404.6,642.26c0,21.95,10.31,37.41,27.27,37.41c17.13,0,26.94-16.29,26.94-38.08
			c0-20.12-9.64-37.41-27.1-37.41C414.58,604.19,404.6,620.48,404.6,642.26z"/>
		<path d="M502.2,587.39c8.15-1.33,20.28-2.33,33.75-2.33c16.63,0,28.27,2.49,36.25,8.81c6.65,5.32,10.31,13.14,10.31,23.44
			c0,14.3-10.14,24.11-19.79,27.6v0.5c7.81,3.16,12.14,10.64,14.96,20.95c3.49,12.64,6.98,27.27,9.15,31.59h-25.94
			c-1.83-3.16-4.49-12.3-7.81-26.1c-2.99-13.97-7.81-17.79-18.12-17.96h-7.65v44.06H502.2V587.39z M527.31,635.61h9.98
			c12.64,0,20.12-6.32,20.12-16.13c0-10.31-6.98-15.46-18.62-15.63c-6.15,0-9.64,0.5-11.47,0.83V635.61z"/>
		<path d="M601.62,671.86c6.82,3.49,17.29,6.98,28.1,6.98c11.64,0,17.79-4.82,17.79-12.14c0-6.98-5.32-10.97-18.79-15.79
			c-18.62-6.49-30.76-16.79-30.76-33.09c0-19.12,15.96-33.75,42.4-33.75c12.64,0,21.95,2.66,28.6,5.65l-5.65,20.45
			c-4.49-2.16-12.47-5.32-23.44-5.32s-16.29,4.99-16.29,10.81c0,7.15,6.32,10.31,20.78,15.8c19.79,7.32,29.1,17.62,29.1,33.42
			c0,18.79-14.46,34.75-45.22,34.75c-12.8,0-25.44-3.33-31.76-6.82L601.62,671.86z"/>
	</g>
	<g>
		<path d="M58.32,713.67v70.34c0,26.62,11.81,37.9,27.68,37.9c17.63,0,28.91-11.64,28.91-37.9v-70.34h15.51v69.28
			c0,36.49-19.22,51.48-44.95,51.48c-24.33,0-42.66-13.93-42.66-50.77v-69.99H58.32z"/>
		<path d="M157.03,832.5V713.67h16.75l38.08,60.12c8.82,13.93,15.69,26.44,21.33,38.61l0.35-0.18c-1.41-15.87-1.76-30.32-1.76-48.83
			v-49.71h14.46V832.5h-15.51l-37.73-60.29c-8.29-13.22-16.22-26.8-22.21-39.67l-0.53,0.18c0.88,14.99,1.23,29.26,1.23,49.01v50.77
			H157.03z"/>
		<path d="M273.02,713.67h15.34v105.95h50.77v12.87h-66.11V713.67z"/>
		<path d="M371.56,713.67V832.5h-15.34V713.67H371.56z"/>
		<path d="M498.49,780.31c-0.88-16.57-1.94-36.49-1.76-51.3h-0.53c-4.06,13.93-8.99,28.74-14.99,45.13l-20.98,57.65h-11.64
			l-19.22-56.59c-5.64-16.75-10.4-32.09-13.75-46.19h-0.35c-0.35,14.81-1.23,34.73-2.29,52.54l-3.17,50.95h-14.63l8.29-118.82h19.57
			l20.27,57.47c4.94,14.63,8.99,27.68,11.99,40.02h0.53c3-11.99,7.23-25.03,12.52-40.02l21.16-57.47h19.57l7.4,118.82h-14.99
			L498.49,780.31z"/>
		<path d="M555.41,713.67V832.5h-15.34V713.67H555.41z"/>
		<path d="M604.77,726.72h-36.14v-13.05h87.97v13.05h-36.32V832.5h-15.51V726.72z"/>
		<path d="M731.35,776.79h-46.19v42.84h51.48v12.87h-66.81V713.67h64.17v12.87h-48.83v37.55h46.19V776.79z"/>
		<path d="M756.55,715.26c9.34-1.41,20.45-2.47,32.61-2.47c22.04,0,37.73,5.11,48.13,14.81c10.58,9.7,16.75,23.45,16.75,42.66
			c0,19.39-5.99,35.26-17.1,46.19c-11.11,11.11-29.44,17.1-52.54,17.1c-10.93,0-20.1-0.53-27.85-1.41V715.26z M771.88,820.33
			c3.88,0.71,9.52,0.88,15.51,0.88c32.79,0,50.6-18.33,50.6-50.42c0.18-28.03-15.69-45.84-48.13-45.84
			c-7.93,0-13.93,0.71-17.98,1.59V820.33z"/>
	</g>
	<path class="st0" d="M986.92,642.81c-1.84-0.03-3.67-0.05-5.51-0.05c-75.53,0-146.08,21.32-205.97,58.26h47.88
		c42.45-18.46,89.23-28.83,138.39-29.19l10.69,37L986.92,642.81z"/>
	<path class="st0" d="M1203.98,711.09c-53.48-36.81-116.66-60.52-185.38-66.58l-7.25,30.4c50.77,6.74,98.12,24.26,139.72,50.15
		l-15.91,44.95L1203.98,711.09z"/>
	<path d="M989.83,613c157.57,0,294.33,89.02,362.79,219.5h41.21c-71.36-151.52-225.42-256.4-404-256.4
		c-120.26,0-229.41,47.57-309.67,124.91h56.04C805.94,645.9,894.04,613,989.83,613z"/>
	<path class="st0" d="M1260.85,832.5h57.04c-24.66-41.03-56.44-77.14-93.74-106.52l-35.36,26.13
		C1216.71,775.03,1241.03,802.16,1260.85,832.5z"/>
</g>
</svg>
