<?xml version="1.0" encoding="utf-8"?>
<!-- Generator: Adobe Illustrator 26.4.1, SVG Export Plug-In . SVG Version: 6.00 Build 0)  -->
<svg version="1.1" id="Layer_1" xmlns="http://www.w3.org/2000/svg" xmlns:xlink="http://www.w3.org/1999/xlink" x="0px" y="0px"
	 viewBox="0 0 1440 1440" style="enable-background:new 0 0 1440 1440;" xml:space="preserve">
<style type="text/css">
	.st0{fill:#00A79D;}
</style>
<g>
	<path class="st0" d="M844.88,632.26c-40.17,13.33-133.53,46.89-315.15,49.8l-63.83-4.47c-8.12-0.57-16.22-1.59-24.23-3.04
		c-57.2-10.39-22.76-3.94-47.82-8.66c-37.35-7.05-54.42-10.26-135.11-5.82C132.98,674.8,83.82,715.82,44.3,748.79
		c-0.68,0.56-2.52,0.97-2.02,1.68c39.45,55.9,84.58,137.79,87.94,146.02l0,0c-3.53-8.64-86.08-105.38-114.3-143.56l-4.58-8.85
		l7.7-6.31c3.13-2.56,6.28-5.19,9.49-7.87c42.06-35.09,94.41-78.77,227.73-94.32l0.75-0.06c83.99-4.64,103.18-1.02,141.4,6.19
		c26.14,4.93,61.93,11.68,136.04,18.69C706.53,667.66,806.12,645.12,844.88,632.26"/>
	<path class="st0" d="M1217.69,883.3L1217.69,883.3c88.74-10.18,110.68-49.56,133.53-73.39c12.01-12.52,24.4-25.45,44.59-35.75
		c12.8-31.01-3.54-66.13-19.36-100.15c-10.1-21.72-19.77-42.52-22.32-62.57c-41.11,5.79-109.61,5.71-132.14,5.51
		c-51.79-0.47-104.34-13.97-151.99-39.03c-82.4-43.34-178.34-71.09-277.45-80.27c-52.25-4.84-105.26-0.56-157.54,12.72
		c-93.66,23.79-155.99,49.41-195.5,109.54l0,0c23.38-62.27,87.79-111.19,188.58-136.79c55.39-14.07,111.6-18.6,167.05-13.47
		c102.75,9.51,202.32,38.34,287.95,83.38c43.71,22.99,91.83,35.37,139.16,35.8c65.46,0.62,121.3-2.5,142.25-7.89l20.19-5.19
		l-2.76,20.66c-2.35,17.65,8.51,41.01,20.01,65.74c18.45,39.66,39.35,84.62,17.08,128.77l-2.21,4.38l-4.45,2.05
		c-20.66,2.01-31.84,9.56-43.98,22.21C1343.32,845.72,1313.98,868.54,1217.69,883.3z"/>
</g>
</svg>
